<?xml version="1.0" encoding="utf-8"?>
<!-- Generator: Adobe Illustrator 23.0.5, SVG Export Plug-In . SVG Version: 6.00 Build 0)  -->
<svg version="1.1" id="Layer_1" xmlns="http://www.w3.org/2000/svg" xmlns:xlink="http://www.w3.org/1999/xlink" x="0px" y="0px"
	 viewBox="0 0 159 100" style="enable-background:new 0 0 159 100;" xml:space="preserve">
<style type="text/css">
	.st0{fill:#FFFFFF;}
</style>
<g>
	<path class="st0" d="M78.8,93.9c-11.6-0.1-23.7-0.7-35.8-2c-8.4-0.9-15.5-7.5-17.1-16c-0.4-2.2-0.8-3.7-3.7-3.9
		c-3.2-0.2-5.6-3.4-5.9-7.1c-0.5-5.3-0.5-10.7,0-16c0.4-4.4,3.1-7.2,7.4-7.6c1.3-0.1,1.7-0.7,1.9-1.8c1.8-9.7,3.7-19.4,5.5-29.1
		c0.6-3.3,1.5-4,4.8-4c1.7,0,3.4,0,5.1,0c2.2,0,3.1,0.7,3.8,2.8c1.1,3.5,2.2,6.9,3.3,10.4c0.3,1.2,0.9,1.6,2.1,1.5
		c6.7-0.6,13.4-1,20.2-1.1c6.5-0.1,13.1-0.1,19.6,0c6.2,0.2,12.3,0.7,18.5,1.1c1.1,0.1,1.5-0.3,1.8-1.3c1-3.5,2.1-7,3.2-10.4
		c0.7-2.2,1.7-2.9,3.9-2.9c1.8,0,3.7,0,5.5,0c2.6,0,3.7,0.9,4.1,3.3c1.8,9.4,3.6,18.8,5.4,28.3c0,0.1,0,0.2,0,0.3
		c0.5,2.7,0.5,2.7,3.2,3.2c3.2,0.6,5.8,3.3,6.2,6.6c0.7,5.8,0.7,11.6,0,17.4c-0.4,3.8-3.4,6.7-7.1,6.8c-1.4,0.1-1.8,0.6-2,1.9
		c-0.6,4.1-2.1,7.8-4.9,11c-3.4,3.9-7.7,6.3-12.9,6.8c-9.1,1-18.2,1.6-27.3,1.8C84.9,93.7,82.1,93.8,78.8,93.9z M31.1,56.8
		c-0.2,6.1,0.6,12.1,1.9,18c1.2,5.4,5.5,9.2,11,9.9c3.6,0.4,7.1,0.7,10.7,0.9c2.7,0.2,4.7-0.9,5.7-3.4c0.6-1.5,1.1-3,1.8-4.5
		c1.1-2.3,2.9-3.6,5.5-3.6c7.5,0,15,0,22.5,0c2.8,0,4.9,1.5,5.9,4.2c0.6,1.4,1.1,2.9,1.7,4.2c1,2.2,3,3.3,5.4,3.1
		c2.9-0.3,5.8-0.5,8.7-0.7c7.6-0.5,12-4.3,13.6-11.7c2.3-11.3,2.2-22.5-0.2-33.8c-1.2-5.6-5.1-9.5-10.7-10.4c-3.5-0.5-7-0.8-10.4-1
		c-4.2-0.2-5.4,0.6-6.9,4.6c-0.2,0.5-0.4,0.9-0.6,1.4c-1.6,4.3-3.4,5.5-8,5.5c-4.7,0-9.5,0-14.2,0c-2.4,0-4.9,0.1-7.3-0.2
		c-2.5-0.3-4.2-1.7-5.1-4.1c-0.5-1.2-1-2.5-1.5-3.7C59.5,29,58,27.9,55.2,28c-3.7,0.2-7.5,0.4-11.1,0.9c-5.8,0.8-9.8,4.5-11.1,10.3
		C31.7,45.1,30.9,50.9,31.1,56.8z"/>
	<path class="st0" d="M56.1,56.9c0.1,2.9-0.1,5.8-0.3,8.7c-0.2,2-1.2,3.2-3.1,3.7c-2.3,0.6-4.7,0.6-7,0c-2-0.5-2.8-1.6-3-3.6
		c-0.5-5.9-0.5-11.9,0-17.8c0.2-2,1.1-3.2,3.1-3.7c2.2-0.5,4.4-0.5,6.6,0c2.3,0.5,3.2,1.6,3.4,3.9C56,51.1,56.2,54,56.1,56.9z"/>
	<path class="st0" d="M115.9,56.9c0.1,2.9-0.1,5.9-0.3,8.8c-0.2,1.9-1.1,3.1-2.9,3.6c-2.5,0.7-4.9,0.6-7.4,0
		c-1.6-0.4-2.6-1.5-2.7-3.1c-0.6-6.2-0.6-12.5,0-18.7c0.1-1.5,1.1-2.6,2.6-3c2.4-0.6,4.7-0.7,7.1-0.1c2.2,0.5,3.1,1.7,3.3,3.9
		C115.8,51,116,54,115.9,56.9z"/>
</g>
</svg>
